<?xml version="1.0" encoding="UTF-8"?>
<svg width="17px" height="21px" viewBox="0 0 17 21" version="1.1" xmlns="http://www.w3.org/2000/svg" xmlns:xlink="http://www.w3.org/1999/xlink">
    <title>密码</title>
    <g id="页面-1" stroke="none" stroke-width="1" fill="none" fill-rule="evenodd">
        <g id="登录1" transform="translate(-808.000000, -511.000000)" fill="#2A47C4" fill-rule="nonzero">
            <g id="编组-3" transform="translate(-494.000000, -97.000000)">
                <g id="密码" transform="translate(1285.000000, 599.000000)">
                    <g transform="translate(17.000000, 9.500000)" id="形状">
                        <path d="M2.83333358,9.54761169 L2.83333354,9.54761169 C2.31173237,9.54761169 1.88888836,9.95268701 1.88888836,10.4523743 L1.88888836,16.7857144 L1.88888836,16.7857145 C1.88888836,17.2853997 2.31173015,17.6904771 2.83333354,17.6904771 L14.1666669,17.6904771 L14.1666668,17.6904771 C14.688268,17.6904771 15.111112,17.2854018 15.111112,16.7857145 L15.111112,10.4523744 L15.111112,10.4523744 C15.111112,9.95268929 14.6882702,9.54761169 14.1666668,9.54761169 L2.8333335,9.54761169 L2.83333358,9.54761169 Z M2.83333358,7.73808867 L14.1666669,7.73808867 L14.1666668,7.73808867 C15.7314725,7.73808867 17,8.95331462 17,10.4523743 L17,16.7857144 L17,16.7857144 C17,18.2847719 15.7314725,19.5 14.1666668,19.5 L2.83333346,19.5 L2.83333333,19.5 C1.2685276,19.5 0,18.2847719 0,16.7857144 C0,16.7857144 0,16.7857144 0,16.7857144 L0,10.4523743 L0,10.4523747 C0,8.95331715 1.26852539,7.73808867 2.83333333,7.73808867 L2.83333358,7.73808867 Z M15.4553687,4.30000064 L15.4553687,4.30000065 C15.7161704,4.73285286 15.561304,5.28628934 15.1094652,5.53613084 C14.6576282,5.78597447 14.0799182,5.63761501 13.8191187,5.2047611 L13.8191188,5.20476126 C12.7427643,3.41262239 10.7484938,2.30840647 8.59020217,2.30953036 C6.08741701,2.30953036 3.87270217,3.78248197 2.97311884,5.9765302 L2.97311883,5.9765302 C2.78234275,6.44161244 2.23412795,6.67048185 1.74864735,6.48772137 C1.26316675,6.30496109 1.0242592,5.77978055 1.2150355,5.31469831 L1.21503522,5.314699 C2.40634785,2.41007413 5.33206777,0.500000831 8.58973704,0.500000831 L8.58973669,0.500000831 C11.4230036,0.498732861 14.0410479,1.94786734 15.4549034,4.3000015 L15.4553687,4.30000064 Z M7.79166691,13.890017 L7.79166684,13.8900169 C7.11408624,13.5152526 6.88192999,12.6852367 7.27313143,12.0361259 C7.66433286,11.3870151 8.53075291,11.1646134 9.20833351,11.5393778 C9.88591411,11.9141421 10.1180704,12.7441579 9.72686893,13.3932687 C9.60253053,13.5995805 9.42369341,13.7709043 9.20833351,13.8900169 L9.20833351,15.0892795 L9.20833351,15.0892795 C9.20833351,15.4640439 8.89120161,15.7678509 8.50000018,15.7678509 C8.10879874,15.7678509 7.79166684,15.4640439 7.79166684,15.0892795 L7.79166684,13.8900169 L7.79166691,13.890017 Z"></path>
                    </g>
                </g>
            </g>
        </g>
    </g>
</svg>