<?xml version="1.0" encoding="UTF-8"?>
<svg width="20px" height="20px" viewBox="0 0 20 20" version="1.1" xmlns="http://www.w3.org/2000/svg" xmlns:xlink="http://www.w3.org/1999/xlink">
    <title>用户</title>
    <g id="页面-1" stroke="none" stroke-width="1" fill="none" fill-rule="evenodd">
        <g id="登录1" transform="translate(-806.000000, -429.000000)" fill="#2B4ACB" fill-rule="nonzero">
            <g id="编组-3" transform="translate(-494.000000, -97.000000)">
                <g id="用户名" transform="translate(1285.000000, 516.000000)">
                    <g id="用户" transform="translate(15.000000, 10.476190)">
                        <path d="M17.0733667,2.78926875 C15.1833904,0.991838379 12.6723769,0 10.0024591,0 C7.33008005,0 4.81908803,0.989516949 2.93155149,2.78926875 C1.0415752,4.58902613 0,6.98017522 0,9.52496838 C0,11.3782768 0.559902758,13.1757146 1.61858358,14.721679 C1.82885355,15.0290118 2.25917008,15.1151577 2.58190894,14.9149269 C2.9046478,14.7146943 2.99511204,14.3049191 2.78484207,13.9975863 C1.87286091,12.6658129 1.39119823,11.1198317 1.39119823,9.52496466 C1.39119823,5.00345903 5.25428992,1.32709899 10,1.32709899 C14.7481709,1.32709899 18.6088209,5.00578418 18.6088209,9.52496466 C18.6088209,14.0464703 14.7457292,17.7228303 10,17.7228303 C8.42788091,17.7228303 6.88997912,17.3153822 5.55256875,16.5447232 C5.22494062,16.3561331 4.79706775,16.4562487 4.59657828,16.7682371 C4.39853442,17.0802258 4.50366862,17.4876739 4.83129656,17.6785929 C6.38630983,18.5726504 8.17360163,19.047619 10,19.047619 C12.6723769,19.047619 15.1833689,18.0581021 17.0709054,16.2583503 C18.9608817,14.4585929 20,12.0674438 20,9.52497582 C20.0024407,6.98016406 18.9633195,4.58903543 17.0733471,2.78927619 L17.0733667,2.78926875 Z" id="路径"></path>
                        <path d="M11.5144468,10.1821215 C12.451044,9.67864044 13.0818618,8.74074151 13.0818618,7.66694114 C13.0818618,6.06293191 11.6757618,4.76190476 9.94221899,4.76190476 C8.20867236,4.76190476 6.80257621,6.06293547 6.80257621,7.66694114 C6.80257621,8.75855948 7.45265667,9.70982323 8.4157377,10.2066299 C6.83387665,10.7880839 5.71428571,12.2183291 5.71428571,13.8913962 C5.71428571,14.1097202 5.90449437,14.2857143 6.14044838,14.2857143 C6.37640392,14.2857143 6.56661104,14.1097188 6.56661104,13.8913962 C6.56901875,12.1381242 8.10513391,10.7167853 10.0024077,10.7167853 C11.8780086,10.7167853 13.4020796,12.1069272 13.4382044,13.8334624 C13.4357967,13.8535125 13.433389,13.8713349 13.433389,13.891385 C13.433389,14.109709 13.6235976,14.2857143 13.8595516,14.2857143 C14.0955072,14.2857143 14.2857143,14.1097076 14.2857143,13.891385 C14.2857143,12.1960361 13.1348325,10.7479747 11.5144557,10.1821103 L11.5144468,10.1821215 Z M9.94462346,9.79225828 C8.67576297,9.79225828 7.64525672,8.84099097 7.64525672,7.66470923 C7.64525672,6.48843638 8.67334695,5.53716017 9.94462346,5.53716017 C11.2134839,5.53716017 12.2439902,6.48842748 12.2439902,7.66470923 C12.2415825,8.84098207 11.2134936,9.79225828 9.94462346,9.79225828 Z" id="形状"></path>
                    </g>
                </g>
            </g>
        </g>
    </g>
</svg>